<mxfile host="app.diagrams.net" modified="2022-07-15T04:53:09.042Z" agent="5.0 (X11; Linux x86_64) AppleWebKit/537.36 (KHTML, like Gecko) Chrome/102.0.0.0 Safari/537.36" etag="aabVVzODIvtL1Vdk6KHB" version="20.1.1" type="github">
  <diagram id="HOUOycb9Vr9W4hVR5m1T" name="Page-1">
    <mxGraphModel dx="58" dy="-267" grid="1" gridSize="10" guides="1" tooltips="1" connect="1" arrows="1" fold="1" page="1" pageScale="1" pageWidth="1654" pageHeight="1169" math="0" shadow="0">
      <root>
        <mxCell id="0" />
        <mxCell id="1" parent="0" />
        <mxCell id="5wCmSRjpwUDmXC5P-P_9-157" value="数据边界" style="rounded=0;whiteSpace=wrap;html=1;hachureGap=4;" vertex="1" parent="1">
          <mxGeometry x="2200" y="1540" width="36" height="780" as="geometry" />
        </mxCell>
        <mxCell id="5wCmSRjpwUDmXC5P-P_9-158" value="" style="edgeStyle=orthogonalEdgeStyle;rounded=0;orthogonalLoop=1;jettySize=auto;html=1;" edge="1" parent="1" source="5wCmSRjpwUDmXC5P-P_9-159" target="5wCmSRjpwUDmXC5P-P_9-161">
          <mxGeometry relative="1" as="geometry" />
        </mxCell>
        <mxCell id="5wCmSRjpwUDmXC5P-P_9-159" value="网力DAG" style="rounded=0;whiteSpace=wrap;html=1;" vertex="1" parent="1">
          <mxGeometry x="2540" y="2040" width="120" height="60" as="geometry" />
        </mxCell>
        <mxCell id="5wCmSRjpwUDmXC5P-P_9-160" value="" style="edgeStyle=orthogonalEdgeStyle;rounded=0;orthogonalLoop=1;jettySize=auto;html=1;" edge="1" parent="1" source="5wCmSRjpwUDmXC5P-P_9-161" target="5wCmSRjpwUDmXC5P-P_9-163">
          <mxGeometry relative="1" as="geometry" />
        </mxCell>
        <mxCell id="5wCmSRjpwUDmXC5P-P_9-161" value="1400集群" style="rounded=0;whiteSpace=wrap;html=1;" vertex="1" parent="1">
          <mxGeometry x="2330" y="2040" width="120" height="60" as="geometry" />
        </mxCell>
        <mxCell id="5wCmSRjpwUDmXC5P-P_9-162" value="" style="edgeStyle=orthogonalEdgeStyle;rounded=0;orthogonalLoop=1;jettySize=auto;html=1;" edge="1" parent="1" source="5wCmSRjpwUDmXC5P-P_9-163" target="5wCmSRjpwUDmXC5P-P_9-164">
          <mxGeometry relative="1" as="geometry" />
        </mxCell>
        <mxCell id="5wCmSRjpwUDmXC5P-P_9-163" value="深瞳云聚类" style="rounded=0;whiteSpace=wrap;html=1;" vertex="1" parent="1">
          <mxGeometry x="2330" y="2140" width="120" height="60" as="geometry" />
        </mxCell>
        <mxCell id="5wCmSRjpwUDmXC5P-P_9-164" value="ftp摆渡" style="rounded=0;whiteSpace=wrap;html=1;" vertex="1" parent="1">
          <mxGeometry x="2330" y="2240" width="120" height="60" as="geometry" />
        </mxCell>
        <mxCell id="5wCmSRjpwUDmXC5P-P_9-165" value="" style="edgeStyle=orthogonalEdgeStyle;rounded=0;orthogonalLoop=1;jettySize=auto;html=1;" edge="1" parent="1" source="5wCmSRjpwUDmXC5P-P_9-166" target="5wCmSRjpwUDmXC5P-P_9-168">
          <mxGeometry relative="1" as="geometry" />
        </mxCell>
        <mxCell id="5wCmSRjpwUDmXC5P-P_9-166" value="ftp摆渡" style="rounded=0;whiteSpace=wrap;html=1;" vertex="1" parent="1">
          <mxGeometry x="1990" y="2240" width="120" height="60" as="geometry" />
        </mxCell>
        <mxCell id="5wCmSRjpwUDmXC5P-P_9-167" value="" style="shape=flexArrow;endArrow=classic;startArrow=classic;html=1;rounded=0;exitX=1;exitY=0.5;exitDx=0;exitDy=0;entryX=0;entryY=0.5;entryDx=0;entryDy=0;" edge="1" parent="1" source="5wCmSRjpwUDmXC5P-P_9-166" target="5wCmSRjpwUDmXC5P-P_9-164">
          <mxGeometry width="100" height="100" relative="1" as="geometry">
            <mxPoint x="2220" y="2310" as="sourcePoint" />
            <mxPoint x="2320" y="2270" as="targetPoint" />
          </mxGeometry>
        </mxCell>
        <mxCell id="5wCmSRjpwUDmXC5P-P_9-168" value="Kafka/ES 集群&lt;br&gt;" style="shape=cylinder3;whiteSpace=wrap;html=1;boundedLbl=1;backgroundOutline=1;size=15;" vertex="1" parent="1">
          <mxGeometry x="2020" y="2100" width="60" height="80" as="geometry" />
        </mxCell>
        <mxCell id="5wCmSRjpwUDmXC5P-P_9-169" value="战狼集群" style="shape=cube;whiteSpace=wrap;html=1;boundedLbl=1;backgroundOutline=1;darkOpacity=0.05;darkOpacity2=0.1;" vertex="1" parent="1">
          <mxGeometry x="1940" y="1850" width="200" height="200" as="geometry" />
        </mxCell>
        <mxCell id="5wCmSRjpwUDmXC5P-P_9-170" value="citus" style="shape=cylinder3;whiteSpace=wrap;html=1;boundedLbl=1;backgroundOutline=1;size=15;" vertex="1" parent="1">
          <mxGeometry x="1770" y="1910" width="60" height="80" as="geometry" />
        </mxCell>
        <mxCell id="5wCmSRjpwUDmXC5P-P_9-171" value="" style="endArrow=classic;startArrow=classic;html=1;rounded=0;exitX=0;exitY=0.5;exitDx=0;exitDy=0;exitPerimeter=0;entryX=0.5;entryY=1;entryDx=0;entryDy=0;entryPerimeter=0;" edge="1" parent="1" source="5wCmSRjpwUDmXC5P-P_9-168" target="5wCmSRjpwUDmXC5P-P_9-170">
          <mxGeometry width="50" height="50" relative="1" as="geometry">
            <mxPoint x="2040" y="2140" as="sourcePoint" />
            <mxPoint x="1870" y="2130" as="targetPoint" />
            <Array as="points">
              <mxPoint x="1800" y="2140" />
            </Array>
          </mxGeometry>
        </mxCell>
        <mxCell id="5wCmSRjpwUDmXC5P-P_9-172" value="" style="endArrow=classic;startArrow=classic;html=1;rounded=0;exitX=1;exitY=0.5;exitDx=0;exitDy=0;exitPerimeter=0;entryX=-0.008;entryY=0.5;entryDx=0;entryDy=0;entryPerimeter=0;" edge="1" parent="1" source="5wCmSRjpwUDmXC5P-P_9-170" target="5wCmSRjpwUDmXC5P-P_9-169">
          <mxGeometry width="50" height="50" relative="1" as="geometry">
            <mxPoint x="1940" y="2050" as="sourcePoint" />
            <mxPoint x="1990" y="2000" as="targetPoint" />
          </mxGeometry>
        </mxCell>
        <mxCell id="5wCmSRjpwUDmXC5P-P_9-173" value="" style="endArrow=classic;startArrow=classic;html=1;rounded=0;exitX=0.5;exitY=0;exitDx=0;exitDy=0;exitPerimeter=0;" edge="1" parent="1" source="5wCmSRjpwUDmXC5P-P_9-168">
          <mxGeometry width="50" height="50" relative="1" as="geometry">
            <mxPoint x="2010" y="2100" as="sourcePoint" />
            <mxPoint x="2050" y="2050" as="targetPoint" />
          </mxGeometry>
        </mxCell>
        <mxCell id="5wCmSRjpwUDmXC5P-P_9-174" value="图片代理" style="rounded=0;whiteSpace=wrap;html=1;" vertex="1" parent="1">
          <mxGeometry x="2330" y="1940" width="120" height="60" as="geometry" />
        </mxCell>
        <mxCell id="5wCmSRjpwUDmXC5P-P_9-175" value="" style="endArrow=classic;html=1;rounded=0;entryX=0;entryY=0.5;entryDx=0;entryDy=0;" edge="1" parent="1" target="5wCmSRjpwUDmXC5P-P_9-174">
          <mxGeometry width="50" height="50" relative="1" as="geometry">
            <mxPoint x="2140" y="1970" as="sourcePoint" />
            <mxPoint x="2300" y="2050" as="targetPoint" />
            <Array as="points">
              <mxPoint x="2170" y="1970" />
              <mxPoint x="2280" y="1970" />
            </Array>
          </mxGeometry>
        </mxCell>
        <mxCell id="5wCmSRjpwUDmXC5P-P_9-176" value="18089" style="edgeLabel;html=1;align=center;verticalAlign=middle;resizable=0;points=[];fontSize=12;" vertex="1" connectable="0" parent="5wCmSRjpwUDmXC5P-P_9-175">
          <mxGeometry x="0.4297" y="1" relative="1" as="geometry">
            <mxPoint x="-16" y="1" as="offset" />
          </mxGeometry>
        </mxCell>
        <mxCell id="5wCmSRjpwUDmXC5P-P_9-177" value="端口映射" style="text;html=1;align=center;verticalAlign=middle;resizable=0;points=[];autosize=1;strokeColor=none;fillColor=none;" vertex="1" parent="1">
          <mxGeometry x="2130" y="1970" width="70" height="30" as="geometry" />
        </mxCell>
        <mxCell id="5wCmSRjpwUDmXC5P-P_9-178" value="视频结构化" style="rounded=0;whiteSpace=wrap;html=1;" vertex="1" parent="1">
          <mxGeometry x="2330" y="1850" width="120" height="60" as="geometry" />
        </mxCell>
        <mxCell id="5wCmSRjpwUDmXC5P-P_9-179" value="" style="endArrow=classic;html=1;rounded=0;entryX=0;entryY=0.5;entryDx=0;entryDy=0;" edge="1" parent="1" target="5wCmSRjpwUDmXC5P-P_9-178">
          <mxGeometry width="50" height="50" relative="1" as="geometry">
            <mxPoint x="2140" y="1970" as="sourcePoint" />
            <mxPoint x="2320" y="1880" as="targetPoint" />
            <Array as="points">
              <mxPoint x="2140" y="1970" />
              <mxPoint x="2170" y="1970" />
              <mxPoint x="2170" y="1880" />
            </Array>
          </mxGeometry>
        </mxCell>
        <mxCell id="5wCmSRjpwUDmXC5P-P_9-180" value="43154" style="edgeLabel;html=1;align=center;verticalAlign=middle;resizable=0;points=[];fontSize=12;" vertex="1" connectable="0" parent="5wCmSRjpwUDmXC5P-P_9-179">
          <mxGeometry x="0.7296" y="-1" relative="1" as="geometry">
            <mxPoint x="-32" y="-1" as="offset" />
          </mxGeometry>
        </mxCell>
        <mxCell id="5wCmSRjpwUDmXC5P-P_9-181" value="&lt;font style=&quot;font-size: 30px;&quot;&gt;视频网&lt;/font&gt;" style="text;html=1;align=center;verticalAlign=middle;resizable=0;points=[];autosize=1;strokeColor=none;fillColor=none;" vertex="1" parent="1">
          <mxGeometry x="2360" y="1530" width="110" height="50" as="geometry" />
        </mxCell>
        <mxCell id="5wCmSRjpwUDmXC5P-P_9-182" value="&lt;font style=&quot;font-size: 30px;&quot;&gt;公安网&lt;/font&gt;" style="text;html=1;align=center;verticalAlign=middle;resizable=0;points=[];autosize=1;strokeColor=none;fillColor=none;" vertex="1" parent="1">
          <mxGeometry x="1970" y="1530" width="110" height="50" as="geometry" />
        </mxCell>
        <mxCell id="5wCmSRjpwUDmXC5P-P_9-183" value="海康图片存储" style="rounded=0;whiteSpace=wrap;html=1;fontSize=12;" vertex="1" parent="1">
          <mxGeometry x="2540" y="1940" width="120" height="60" as="geometry" />
        </mxCell>
        <mxCell id="5wCmSRjpwUDmXC5P-P_9-184" value="" style="endArrow=classic;html=1;rounded=0;fontSize=12;entryX=0;entryY=0.5;entryDx=0;entryDy=0;exitX=0.5;exitY=1;exitDx=0;exitDy=0;" edge="1" parent="1" source="5wCmSRjpwUDmXC5P-P_9-174" target="5wCmSRjpwUDmXC5P-P_9-163">
          <mxGeometry width="50" height="50" relative="1" as="geometry">
            <mxPoint x="2370" y="2010" as="sourcePoint" />
            <mxPoint x="2300" y="2060" as="targetPoint" />
            <Array as="points">
              <mxPoint x="2390" y="2020" />
              <mxPoint x="2290" y="2020" />
              <mxPoint x="2290" y="2170" />
            </Array>
          </mxGeometry>
        </mxCell>
        <mxCell id="5wCmSRjpwUDmXC5P-P_9-185" value="档案&lt;br&gt;" style="edgeLabel;html=1;align=center;verticalAlign=middle;resizable=0;points=[];fontSize=12;" vertex="1" connectable="0" parent="5wCmSRjpwUDmXC5P-P_9-184">
          <mxGeometry x="0.3742" y="1" relative="1" as="geometry">
            <mxPoint x="-1" y="-13" as="offset" />
          </mxGeometry>
        </mxCell>
        <mxCell id="5wCmSRjpwUDmXC5P-P_9-186" value="" style="endArrow=classic;html=1;rounded=0;fontSize=12;entryX=0;entryY=0.5;entryDx=0;entryDy=0;exitX=1;exitY=0.5;exitDx=0;exitDy=0;" edge="1" parent="1" source="5wCmSRjpwUDmXC5P-P_9-174" target="5wCmSRjpwUDmXC5P-P_9-183">
          <mxGeometry width="50" height="50" relative="1" as="geometry">
            <mxPoint x="2250" y="2060" as="sourcePoint" />
            <mxPoint x="2300" y="2010" as="targetPoint" />
          </mxGeometry>
        </mxCell>
        <mxCell id="5wCmSRjpwUDmXC5P-P_9-187" value="抓拍图" style="edgeLabel;html=1;align=center;verticalAlign=middle;resizable=0;points=[];fontSize=12;" vertex="1" connectable="0" parent="5wCmSRjpwUDmXC5P-P_9-186">
          <mxGeometry x="-0.4889" relative="1" as="geometry">
            <mxPoint x="17" as="offset" />
          </mxGeometry>
        </mxCell>
        <mxCell id="5wCmSRjpwUDmXC5P-P_9-188" value="fse布控" style="rounded=0;whiteSpace=wrap;html=1;fontSize=12;" vertex="1" parent="1">
          <mxGeometry x="1750" y="1790" width="120" height="60" as="geometry" />
        </mxCell>
        <mxCell id="5wCmSRjpwUDmXC5P-P_9-189" value="报警比对" style="rounded=0;whiteSpace=wrap;html=1;fontSize=12;" vertex="1" parent="1">
          <mxGeometry x="1750" y="1670" width="120" height="60" as="geometry" />
        </mxCell>
        <mxCell id="5wCmSRjpwUDmXC5P-P_9-190" value="" style="endArrow=classic;startArrow=classic;html=1;rounded=0;fontSize=12;entryX=0.5;entryY=-0.005;entryDx=0;entryDy=0;entryPerimeter=0;" edge="1" parent="1" target="5wCmSRjpwUDmXC5P-P_9-169">
          <mxGeometry width="50" height="50" relative="1" as="geometry">
            <mxPoint x="1870" y="1820" as="sourcePoint" />
            <mxPoint x="2070" y="1820" as="targetPoint" />
            <Array as="points">
              <mxPoint x="2040" y="1820" />
            </Array>
          </mxGeometry>
        </mxCell>
        <mxCell id="5wCmSRjpwUDmXC5P-P_9-191" value="" style="endArrow=classic;startArrow=classic;html=1;rounded=0;fontSize=12;exitX=1;exitY=0.5;exitDx=0;exitDy=0;" edge="1" parent="1" source="5wCmSRjpwUDmXC5P-P_9-189">
          <mxGeometry width="50" height="50" relative="1" as="geometry">
            <mxPoint x="1930" y="1730" as="sourcePoint" />
            <mxPoint x="2040" y="1850" as="targetPoint" />
            <Array as="points">
              <mxPoint x="2040" y="1700" />
            </Array>
          </mxGeometry>
        </mxCell>
        <mxCell id="5wCmSRjpwUDmXC5P-P_9-192" value="" style="endArrow=classic;html=1;rounded=0;fontSize=12;entryX=0;entryY=0.5;entryDx=0;entryDy=0;" edge="1" parent="1" target="5wCmSRjpwUDmXC5P-P_9-163">
          <mxGeometry width="50" height="50" relative="1" as="geometry">
            <mxPoint x="2140" y="1970" as="sourcePoint" />
            <mxPoint x="2210" y="2010" as="targetPoint" />
            <Array as="points">
              <mxPoint x="2170" y="1970" />
              <mxPoint x="2170" y="2170" />
            </Array>
          </mxGeometry>
        </mxCell>
        <mxCell id="5wCmSRjpwUDmXC5P-P_9-193" value="23154" style="edgeLabel;html=1;align=center;verticalAlign=middle;resizable=0;points=[];fontSize=12;" vertex="1" connectable="0" parent="5wCmSRjpwUDmXC5P-P_9-192">
          <mxGeometry x="0.6513" relative="1" as="geometry">
            <mxPoint x="-2" as="offset" />
          </mxGeometry>
        </mxCell>
        <mxCell id="5wCmSRjpwUDmXC5P-P_9-194" style="edgeStyle=orthogonalEdgeStyle;rounded=0;orthogonalLoop=1;jettySize=auto;html=1;exitX=0.5;exitY=1;exitDx=0;exitDy=0;fontSize=12;" edge="1" parent="1" source="5wCmSRjpwUDmXC5P-P_9-157" target="5wCmSRjpwUDmXC5P-P_9-157">
          <mxGeometry relative="1" as="geometry" />
        </mxCell>
      </root>
    </mxGraphModel>
  </diagram>
</mxfile>
